<svg xmlns="http://www.w3.org/2000/svg" xmlns:xlink="http://www.w3.org/1999/xlink" width="900" zoomAndPan="magnify" viewBox="0 0 675 374.999991" height="500" preserveAspectRatio="xMidYMid meet" version="1.0"><defs><clipPath id="id1"><path d="M 11 0 L 670 0 L 670 373.5 L 11 373.5 Z M 11 0 " clip-rule="nonzero"/></clipPath></defs><g clip-path="url(#id1)"><path fill="#ffffff" d="M 542.375 0.429688 C 413.070312 16.257812 279.914062 32.941406 163.882812 95.40625 C 137.335938 109.527344 112.503906 125.785156 88.953125 144.609375 C 67.117188 162.148438 46.566406 181.828125 31.582031 205.359375 C 3.75 249.429688 1.183594 312.320312 48.28125 344.835938 C 67.976562 358.527344 91.953125 364.515625 115.5 367.9375 C 144.613281 372.214844 175.015625 373.5 204.558594 373.5 C 264.925781 373.070312 325.296875 364.941406 383.527344 349.542969 C 441.757812 334.140625 498.273438 311.035156 550.9375 281.515625 C 597.175781 255.417969 654.980469 222.472656 667.824219 166.429688 C 673.816406 140.328125 666.539062 113.804688 649.839844 93.269531 C 632.714844 71.875 608.308594 58.183594 582.621094 50.484375 C 553.503906 41.5 522.679688 38.933594 492.707031 36.792969 C 460.167969 34.65625 427.628906 34.226562 395.085938 36.367188 C 378.816406 37.648438 362.546875 39.359375 346.277344 41.5 C 341.996094 42.355469 343.28125 48.773438 347.5625 48.34375 C 409.214844 39.359375 472.15625 39.789062 534.238281 47.488281 C 586.046875 54.335938 651.554688 75.300781 662.683594 134.769531 C 673.390625 194.238281 614.304688 235.308594 570.632812 262.261719 C 521.394531 292.640625 468.300781 316.597656 413.496094 334.140625 C 358.695312 351.253906 302.175781 361.949219 244.804688 365.371094 C 216.117188 367.082031 187.003906 367.082031 157.886719 365.371094 C 132.199219 363.660156 106.082031 361.519531 81.675781 353.390625 C 58.554688 345.691406 36.71875 332 26.015625 309.324219 C 14.027344 284.511719 16.597656 254.5625 26.871094 229.746094 C 37.574219 204.503906 56.414062 183.542969 76.539062 165.144531 C 97.945312 145.464844 121.921875 128.351562 146.757812 113.375 C 252.511719 50.484375 375.820312 29.09375 496.132812 13.691406 C 511.972656 11.550781 527.816406 9.839844 543.65625 7.699219 C 547.9375 6.417969 547.082031 0 542.375 0.429688 Z M 542.375 0.429688 " fill-opacity="1" fill-rule="nonzero"/></g></svg>
