<svg xmlns="http://www.w3.org/2000/svg" xmlns:xlink="http://www.w3.org/1999/xlink" width="500" zoomAndPan="magnify" viewBox="0 0 375 374.999991" height="500" preserveAspectRatio="xMidYMid meet" version="1.0"><defs><clipPath id="id1"><path d="M 6 79.726562 L 367 79.726562 L 367 284.476562 L 6 284.476562 Z M 6 79.726562 " clip-rule="nonzero"/></clipPath></defs><g clip-path="url(#id1)"><path fill="#10b981" d="M 296.496094 79.960938 C 225.808594 88.636719 153.019531 97.785156 89.589844 132.027344 C 75.078125 139.765625 61.503906 148.679688 48.632812 159 C 36.695312 168.617188 25.460938 179.402344 17.269531 192.304688 C 2.054688 216.460938 0.652344 250.9375 26.398438 268.761719 C 37.164062 276.265625 50.269531 279.550781 63.144531 281.425781 C 79.058594 283.773438 95.675781 284.476562 111.828125 284.476562 C 144.828125 284.242188 177.828125 279.785156 209.660156 271.34375 C 241.492188 262.898438 272.386719 250.234375 301.175781 234.050781 C 326.453125 219.746094 358.050781 201.683594 365.070312 170.960938 C 368.347656 156.652344 364.371094 142.113281 355.242188 130.855469 C 345.878906 119.128906 332.539062 111.625 318.496094 107.402344 C 302.578125 102.476562 285.726562 101.070312 269.34375 99.894531 C 251.554688 98.722656 233.769531 98.488281 215.980469 99.660156 C 207.085938 100.367188 198.191406 101.304688 189.296875 102.476562 C 186.957031 102.945312 187.660156 106.464844 190 106.230469 C 223.703125 101.304688 258.109375 101.539062 292.046875 105.757812 C 320.367188 109.511719 356.179688 121.003906 362.261719 153.605469 C 368.113281 186.207031 335.816406 208.722656 311.941406 223.496094 C 285.027344 240.148438 256.003906 253.28125 226.042969 262.898438 C 196.085938 272.28125 165.191406 278.144531 133.828125 280.019531 C 118.144531 280.957031 102.230469 280.957031 86.316406 280.019531 C 72.269531 279.082031 57.992188 277.910156 44.652344 273.453125 C 32.015625 269.230469 20.078125 261.726562 14.226562 249.296875 C 7.671875 235.691406 9.078125 219.273438 14.695312 205.671875 C 20.546875 191.835938 30.84375 180.34375 41.84375 170.257812 C 53.546875 159.46875 66.652344 150.085938 80.230469 141.878906 C 138.039062 107.402344 205.449219 95.675781 271.21875 87.230469 C 279.875 86.058594 288.535156 85.121094 297.195312 83.949219 C 299.539062 83.246094 299.070312 79.726562 296.496094 79.960938 Z M 296.496094 79.960938 " fill-opacity="1" fill-rule="nonzero"/></g></svg>
